<svg width="96" height="95" viewBox="0 0 96 95" fill="none" xmlns="http://www.w3.org/2000/svg">
<g clip-path="url(#clip0_112_1993)">
<path d="M75.8687 47.7031L69.1859 31.0266C68.7357 29.8959 67.9572 28.926 66.9507 28.2418C65.9443 27.5576 64.756 27.1904 63.5391 27.1875H60.1875C59.6488 27.1875 59.1321 27.4015 58.7512 27.7824C58.3703 28.1634 58.1562 28.68 58.1562 29.2188C58.1562 29.7575 58.3703 30.2741 58.7512 30.6551C59.1321 31.036 59.6488 31.25 60.1875 31.25H63.5391C63.9424 31.2536 64.3355 31.3773 64.6684 31.6052C65.0012 31.8331 65.2586 32.1549 65.4078 32.5297L71.4 47.5H24.6812L30.5922 32.5297C30.7414 32.1549 30.9988 31.8331 31.3316 31.6052C31.6645 31.3773 32.0576 31.2536 32.4609 31.25H35.8125C36.3512 31.25 36.8679 31.036 37.2488 30.6551C37.6297 30.2741 37.8438 29.7575 37.8438 29.2188C37.8438 28.68 37.6297 28.1634 37.2488 27.7824C36.8679 27.4015 36.3512 27.1875 35.8125 27.1875H32.4609C31.244 27.1904 30.0557 27.5576 29.0493 28.2418C28.0428 28.926 27.2643 29.8959 26.8141 31.0266L20.1312 47.7031C18.8135 48.0289 17.6422 48.7853 16.8032 49.8525C15.9642 50.9196 15.5056 52.2363 15.5 53.5938L15.5 63.75C15.5035 65.0072 15.8958 66.2326 16.6232 67.2581C17.3505 68.2836 18.3772 69.0591 19.5625 69.4781V73.9062C19.5625 75.5224 20.2045 77.0724 21.3473 78.2152C22.4901 79.358 24.0401 80 25.6562 80H29.7188C31.3349 80 32.8849 79.358 34.0277 78.2152C35.1705 77.0724 35.8125 75.5224 35.8125 73.9062V69.8438H39.875C40.4137 69.8438 40.9304 69.6297 41.3113 69.2488C41.6922 68.8679 41.9062 68.3512 41.9062 67.8125C41.9062 67.2738 41.6922 66.7571 41.3113 66.3762C40.9304 65.9953 40.4137 65.7812 39.875 65.7812H37.0719L39.1031 61.7188H56.8969L58.9281 65.7812H48C47.4613 65.7812 46.9446 65.9953 46.5637 66.3762C46.1828 66.7571 45.9688 67.2738 45.9688 67.8125C45.9688 68.3512 46.1828 68.8679 46.5637 69.2488C46.9446 69.6297 47.4613 69.8438 48 69.8438H60.1875V73.9062C60.1875 75.5224 60.8295 77.0724 61.9723 78.2152C63.1151 79.358 64.6651 80 66.2812 80H70.3438C71.9599 80 73.5099 79.358 74.6527 78.2152C75.7955 77.0724 76.4375 75.5224 76.4375 73.9062V69.4781C77.6228 69.0591 78.6495 68.2836 79.3768 67.2581C80.1042 66.2326 80.4965 65.0072 80.5 63.75V53.5938C80.4944 52.2363 80.0358 50.9196 79.1968 49.8525C78.3578 48.7853 77.1865 48.0289 75.8687 47.7031ZM31.75 73.9062C31.75 74.445 31.536 74.9616 31.1551 75.3426C30.7741 75.7235 30.2575 75.9375 29.7188 75.9375H25.6562C25.1175 75.9375 24.6009 75.7235 24.2199 75.3426C23.839 74.9616 23.625 74.445 23.625 73.9062V69.8438H31.75V73.9062ZM72.375 73.9062C72.375 74.445 72.161 74.9616 71.7801 75.3426C71.3991 75.7235 70.8825 75.9375 70.3438 75.9375H66.2812C65.7425 75.9375 65.2259 75.7235 64.8449 75.3426C64.464 74.9616 64.25 74.445 64.25 73.9062V69.8438H72.375V73.9062ZM76.4375 63.75C76.4375 64.2887 76.2235 64.8054 75.8426 65.1863C75.4616 65.5672 74.945 65.7812 74.4062 65.7812H63.4781L59.9641 58.7734C59.7953 58.4385 59.537 58.1568 59.2179 57.9596C58.8988 57.7624 58.5314 57.6574 58.1562 57.6562H37.8438C37.4686 57.6574 37.1012 57.7624 36.7821 57.9596C36.463 58.1568 36.2047 58.4385 36.0359 58.7734L32.5219 65.7812H21.5938C21.055 65.7812 20.5384 65.5672 20.1574 65.1863C19.7765 64.8054 19.5625 64.2887 19.5625 63.75V53.5938C19.5625 53.055 19.7765 52.5384 20.1574 52.1574C20.5384 51.7765 21.055 51.5625 21.5938 51.5625H74.4062C74.945 51.5625 75.4616 51.7765 75.8426 52.1574C76.2235 52.5384 76.4375 53.055 76.4375 53.5938V63.75Z" fill="#DA0D14"/>
<path d="M26.6719 61.7188C28.3546 61.7188 29.7188 60.3546 29.7188 58.6719C29.7188 56.9891 28.3546 55.625 26.6719 55.625C24.9891 55.625 23.625 56.9891 23.625 58.6719C23.625 60.3546 24.9891 61.7188 26.6719 61.7188Z" fill="#DA0D14"/>
<path d="M69.3281 61.7188C71.0109 61.7188 72.375 60.3546 72.375 58.6719C72.375 56.9891 71.0109 55.625 69.3281 55.625C67.6454 55.625 66.2812 56.9891 66.2812 58.6719C66.2812 60.3546 67.6454 61.7188 69.3281 61.7188Z" fill="#DA0D14"/>
<path d="M48 43.4375C45.1878 43.4375 42.4388 42.6036 40.1005 41.0412C37.7622 39.4788 35.9398 37.2582 34.8636 34.66C33.7874 32.0619 33.5058 29.203 34.0545 26.4448C34.6031 23.6866 35.9573 21.1531 37.9458 19.1646C39.9344 17.1761 42.4679 15.8218 45.2261 15.2732C47.9842 14.7246 50.8431 15.0062 53.4413 16.0823C56.0394 17.1585 58.2601 18.981 59.8225 21.3192C61.3848 23.6575 62.2188 26.4066 62.2188 29.2188C62.2188 32.9898 60.7207 36.6064 58.0542 39.2729C55.3876 41.9395 51.7711 43.4375 48 43.4375ZM48 19.0625C45.9913 19.0625 44.0277 19.6582 42.3575 20.7741C40.6873 21.8901 39.3856 23.4763 38.6169 25.3321C37.8482 27.1879 37.647 29.23 38.0389 31.2001C38.4308 33.1703 39.3981 34.9799 40.8185 36.4003C42.2388 37.8207 44.0485 38.788 46.0186 39.1799C47.9887 39.5717 50.0308 39.3706 51.8866 38.6019C53.7424 37.8332 55.3286 36.5315 56.4446 34.8613C57.5606 33.1911 58.1563 31.2275 58.1563 29.2188C58.1563 26.5252 57.0862 23.9419 55.1816 22.0372C53.2769 20.1325 50.6936 19.0625 48 19.0625Z" fill="#DA0D14"/>
<path d="M46.6394 33.9516C45.5425 33.9516 45.2784 33.4438 42.5769 30.661C42.1944 30.2785 41.9795 29.7597 41.9795 29.2188C41.9795 28.6779 42.1944 28.1591 42.5769 27.7766C42.9594 27.3941 43.4781 27.1792 44.0191 27.1792C44.56 27.1792 45.0787 27.3941 45.4612 27.7766L46.7206 29.0563L50.7831 24.9938C50.9719 24.8034 51.1966 24.6523 51.4441 24.5492C51.6917 24.446 51.9572 24.3929 52.2253 24.3929C52.4935 24.3929 52.7589 24.446 53.0065 24.5492C53.254 24.6523 53.4787 24.8034 53.6675 24.9938C54.0458 25.3744 54.2582 25.8892 54.2582 26.4258C54.2582 26.9624 54.0458 27.4773 53.6675 27.8578L48.0003 33.2813C47.6503 33.6721 47.1626 33.9123 46.6394 33.9516Z" fill="#DA0D14"/>
</g>
<defs>
<clipPath id="clip0_112_1993">
<rect width="65" height="65" fill="white" transform="translate(15.5 15)"/>
</clipPath>
</defs>
</svg>
