<svg width="96" height="95" viewBox="0 0 96 95" fill="none" xmlns="http://www.w3.org/2000/svg">
<g clip-path="url(#clip0_112_1981)">
<path d="M39.327 78.8218C38.8451 78.6468 38.4473 78.2961 38.2132 77.84C37.9792 77.3839 37.9262 76.8562 38.065 76.3627C38.2038 75.8692 38.5241 75.4464 38.9616 75.1792C39.3991 74.9119 39.9214 74.82 40.4238 74.9218C47.3474 76.8303 54.7367 76.0485 61.1076 72.7335C67.4785 69.4184 72.3591 63.8155 74.7693 57.0502C77.1794 50.2849 76.9406 42.8583 74.1007 36.2618C71.2608 29.6654 66.0302 24.3877 59.4594 21.4889C52.8887 18.59 45.4645 18.2846 38.6778 20.6341C31.8912 22.9836 26.2449 27.8138 22.8729 34.1548C19.5009 40.4957 18.6529 47.8777 20.4993 54.8181C22.3458 61.7584 26.7498 67.7432 32.827 71.5703C33.054 71.7113 33.251 71.8958 33.4067 72.1132C33.5623 72.3305 33.6735 72.5765 33.7339 72.8369C33.7943 73.0973 33.8027 73.3671 33.7586 73.6307C33.7145 73.8944 33.6188 74.1468 33.477 74.3734C33.3343 74.5988 33.1486 74.7939 32.9305 74.9476C32.7124 75.1012 32.4661 75.2104 32.2058 75.2689C31.9455 75.3274 31.6763 75.334 31.4134 75.2884C31.1505 75.2428 30.8992 75.1458 30.6738 75.0031C23.7258 70.6311 18.6896 63.7918 16.577 55.8591C14.4645 47.9265 15.4322 39.4883 19.2856 32.2398C23.1391 24.9913 29.5928 19.4696 37.3502 16.784C45.1076 14.0984 53.5939 14.4479 61.1042 17.7623C68.6145 21.0767 74.5923 27.1104 77.8367 34.6512C81.081 42.1921 81.3515 50.6813 78.5938 58.4133C75.8361 66.1454 70.2546 72.5474 62.9705 76.3332C55.6865 80.119 47.2396 81.0081 39.327 78.8218Z" fill="#DA0D14"/>
<path d="M43.3081 71.428C38.553 70.4968 34.1833 68.1694 30.757 64.7432C27.3308 61.3169 25.0034 56.9472 24.0722 52.1921C24.0103 51.8808 24.0222 51.5594 24.107 51.2536C24.1918 50.9477 24.347 50.666 24.5603 50.431C24.7736 50.196 25.039 50.0143 25.3352 49.9003C25.6314 49.7864 25.9501 49.7434 26.2659 49.7749L42.2925 51.3999C42.7553 51.4486 43.1874 51.6546 43.5165 51.9837C43.8456 52.3128 44.0517 52.7449 44.1003 53.2077L45.7253 69.2343C45.7568 69.5501 45.7138 69.8688 45.5999 70.165C45.4859 70.4612 45.3042 70.7266 45.0692 70.9399C44.8342 71.1532 44.5525 71.3084 44.2466 71.3932C43.9408 71.478 43.6194 71.4899 43.3081 71.428ZM28.7847 54.1218C29.7893 57.0397 31.4455 59.6904 33.6277 61.8725C35.8098 64.0547 38.4605 65.7109 41.3784 66.7155L40.2409 55.2593L28.7847 54.1218Z" fill="#DA0D14"/>
<path d="M50.2756 69.2343L51.9006 53.2077C51.9493 52.7449 52.1554 52.3128 52.4845 51.9837C52.8135 51.6546 53.2456 51.4486 53.7085 51.3999L69.735 49.7749C70.0508 49.7434 70.3696 49.7864 70.6658 49.9003C70.962 50.0143 71.2273 50.196 71.4406 50.431C71.6539 50.666 71.8092 50.9477 71.8939 51.2536C71.9787 51.5594 71.9906 51.8808 71.9288 52.1921C70.9975 56.9472 68.6702 61.3169 65.2439 64.7432C61.8176 68.1694 57.448 70.4968 52.6928 71.428C52.3816 71.4899 52.0601 71.478 51.7543 71.3932C51.4485 71.3084 51.1668 71.1532 50.9318 70.9399C50.6968 70.7266 50.515 70.4612 50.4011 70.165C50.2871 69.8688 50.2442 69.5501 50.2756 69.2343ZM55.76 55.2593L54.6225 66.7155C57.5404 65.7109 60.1911 64.0547 62.3733 61.8725C64.5554 59.6904 66.2117 57.0397 67.2163 54.1218L55.76 55.2593Z" fill="#DA0D14"/>
<path d="M69.9379 45.2249C69.491 45.2249 50.1332 41.4062 48.0004 41.4062C46.6801 41.4062 35.9145 43.4374 26.4488 45.1843C26.1232 45.2465 25.7874 45.2282 25.4705 45.1307C25.1537 45.0333 24.8655 44.8599 24.6311 44.6255C24.3967 44.3911 24.2232 44.1029 24.1258 43.786C24.0284 43.4692 24.01 43.1333 24.0723 42.8077C25.1508 37.253 28.1282 32.2466 32.494 28.647C36.8598 25.0473 42.342 23.0787 48.0004 23.0787C53.6588 23.0787 59.141 25.0473 63.5067 28.647C67.8725 32.2466 70.85 37.253 71.9285 42.8077C71.9854 43.1014 71.9766 43.4041 71.9029 43.694C71.8292 43.9839 71.6924 44.254 71.5023 44.4849C71.3121 44.7159 71.0732 44.9019 70.8028 45.0299C70.5324 45.1578 70.237 45.2244 69.9379 45.2249ZM48.0004 37.3437C49.7879 37.3437 61.0816 39.3749 67.1145 40.5937C65.6993 36.6585 63.1041 33.2561 59.6831 30.8509C56.2622 28.4457 52.1822 27.155 48.0004 27.155C43.8186 27.155 39.7386 28.4457 36.3177 30.8509C32.8967 33.2561 30.3015 36.6585 28.8863 40.5937C34.9191 39.3749 46.2129 37.3437 48.0004 37.3437Z" fill="#DA0D14"/>
<path d="M48 57.6563C45.9913 57.6563 44.0277 57.0606 42.3575 55.9446C40.6873 54.8286 39.3856 53.2424 38.6169 51.3866C37.8482 49.5308 37.647 47.4887 38.0389 45.5186C38.4308 43.5485 39.3981 41.7388 40.8185 40.3185C42.2388 38.8981 44.0485 37.9308 46.0186 37.5389C47.9887 37.147 50.0308 37.3482 51.8866 38.1169C53.7424 38.8856 55.3286 40.1873 56.4446 41.8575C57.5606 43.5277 58.1563 45.4913 58.1563 47.5C58.1563 50.1936 57.0862 52.7769 55.1816 54.6816C53.2769 56.5862 50.6936 57.6563 48 57.6563ZM48 41.4063C46.7948 41.4063 45.6166 41.7636 44.6145 42.4332C43.6124 43.1028 42.8313 44.0545 42.3701 45.168C41.9089 46.2815 41.7882 47.5068 42.0233 48.6888C42.2585 49.8709 42.8388 50.9567 43.6911 51.8089C44.5433 52.6612 45.6291 53.2415 46.8112 53.4767C47.9932 53.7118 49.2185 53.5911 50.332 53.1299C51.4455 52.6687 52.3972 51.8876 53.0668 50.8855C53.7364 49.8834 54.0938 48.7052 54.0938 47.5C54.0938 45.8838 53.4517 44.3339 52.3089 43.1911C51.1661 42.0483 49.6162 41.4063 48 41.4063Z" fill="#DA0D14"/>
</g>
<defs>
<clipPath id="clip0_112_1981">
<rect width="65" height="65" fill="white" transform="translate(15.5 15)"/>
</clipPath>
</defs>
</svg>
