<svg width="96" height="95" viewBox="0 0 96 95" fill="none" xmlns="http://www.w3.org/2000/svg">
<g clip-path="url(#clip0_112_1969)">
<path d="M43.9374 43.4375H35.8124C35.4373 43.4364 35.0699 43.3314 34.7508 43.1342C34.4317 42.937 34.1734 42.6553 34.0046 42.3203L32.5218 39.375H28.4593L25.0062 42.8484C24.8006 43.0446 24.5563 43.1954 24.2888 43.2912C24.0213 43.3869 23.7367 43.4255 23.4534 43.4045C23.1701 43.3834 22.8944 43.3032 22.644 43.1689C22.3937 43.0346 22.1742 42.8494 21.9999 42.625L15.9062 34.5C15.6993 34.2076 15.5735 33.8657 15.5414 33.509C15.5093 33.1523 15.5721 32.7934 15.7234 32.4688L18.6484 26.4969C19.1551 25.482 19.935 24.6286 20.9003 24.0329C21.8656 23.4372 22.9781 23.1228 24.1124 23.125H54.0937C54.6324 23.125 55.1491 23.339 55.53 23.72C55.9109 24.1009 56.1249 24.6175 56.1249 25.1563C56.1249 25.695 55.9109 26.2116 55.53 26.5926C55.1491 26.9735 54.6324 27.1875 54.0937 27.1875H24.1124C23.7339 27.1849 23.3621 27.2881 23.0391 27.4855C22.7161 27.6829 22.4547 27.9666 22.2843 28.3047L19.9078 33.0578L23.8484 38.3188C27.2406 34.9063 26.3874 35.3125 32.5218 35.3125C33.2776 35.3129 34.0183 35.5241 34.6606 35.9225C35.303 36.3208 35.8214 36.8904 36.1578 37.5672L37.0718 39.375H42.6781L43.5921 37.5672C43.9285 36.8904 44.4469 36.3208 45.0893 35.9225C45.7316 35.5241 46.4723 35.3129 47.2281 35.3125H54.0937C54.6324 35.3125 55.1491 35.5265 55.53 35.9075C55.9109 36.2884 56.1249 36.805 56.1249 37.3438C56.1249 37.8825 55.9109 38.3991 55.53 38.7801C55.1491 39.161 54.6324 39.375 54.0937 39.375H47.2281L45.7453 42.3203C45.5765 42.6553 45.3182 42.937 44.9991 43.1342C44.68 43.3314 44.3125 43.4364 43.9374 43.4375Z" fill="#DA0D14"/>
<path d="M70.3438 37.3438C69.805 37.3438 69.2884 37.1297 68.9074 36.7488C68.5265 36.3679 68.3125 35.8512 68.3125 35.3125V27.1875C68.3125 26.6488 68.5265 26.1321 68.9074 25.7512C69.2884 25.3703 69.805 25.1562 70.3438 25.1563C70.8825 25.1562 71.3991 25.3703 71.7801 25.7512C72.161 26.1321 72.375 26.6488 72.375 27.1875V35.3125C72.375 35.8512 72.161 36.3679 71.7801 36.7488C71.3991 37.1297 70.8825 37.3438 70.3438 37.3438Z" fill="#DA0D14"/>
<path d="M74.4062 17.0312H58.1562C56.5401 17.0312 54.9901 17.6733 53.8473 18.8161C52.7045 19.9589 52.0625 21.5088 52.0625 23.125V39.375C52.0625 40.9912 52.7045 42.5411 53.8473 43.6839C54.9901 44.8267 56.5401 45.4688 58.1562 45.4688H68.3125V49.6328C68.3247 52.6831 69.5444 55.6044 71.7047 57.7578C72.0506 58.0706 72.292 58.4822 72.3962 58.9368C72.5004 59.3914 72.4624 59.8671 72.2872 60.2993C72.1121 60.7316 71.8084 61.0996 71.4171 61.3535C71.0259 61.6074 70.5661 61.7349 70.1 61.7188H68.3125C68.3125 60.1026 67.6705 58.5526 66.5277 57.4098C65.3849 56.267 63.8349 55.625 62.2188 55.625H60.1875C60.1875 54.0088 59.5455 52.4589 58.4027 51.3161C57.2599 50.1733 55.7099 49.5312 54.0938 49.5312H21.5938C19.9776 49.5312 18.4276 50.1733 17.2848 51.3161C16.142 52.4589 15.5 54.0088 15.5 55.625V71.875C15.5 73.4912 16.142 75.0411 17.2848 76.1839C18.4276 77.3267 19.9776 77.9688 21.5938 77.9688H37.8438C38.3825 77.9688 38.8991 77.7547 39.2801 77.3738C39.661 76.9929 39.875 76.4762 39.875 75.9375V53.5938H54.0938C54.6325 53.5938 55.1491 53.8078 55.5301 54.1887C55.911 54.5696 56.125 55.0863 56.125 55.625V71.875C56.125 72.4137 55.911 72.9304 55.5301 73.3113C55.1491 73.6922 54.6325 73.9062 54.0938 73.9062H45.9688C45.43 73.9062 44.9134 74.1203 44.5324 74.5012C44.1515 74.8821 43.9375 75.3988 43.9375 75.9375C43.9375 76.4762 44.1515 76.9929 44.5324 77.3738C44.9134 77.7547 45.43 77.9688 45.9688 77.9688H54.0938C55.7099 77.9688 57.2599 77.3267 58.4027 76.1839C59.5455 75.0411 60.1875 73.4912 60.1875 71.875H62.2188C63.8349 71.875 65.3849 71.233 66.5277 70.0902C67.6705 68.9474 68.3125 67.3974 68.3125 65.7812H70.1C71.3514 65.7747 72.573 65.399 73.6118 64.7012C74.6506 64.0035 75.4604 63.0146 75.9397 61.8587C76.419 60.7027 76.5465 59.431 76.3063 58.2028C76.066 56.9747 75.4687 55.8448 74.5891 54.9547C71.9078 52.2938 72.375 49.5312 72.375 45.4688H74.4062C76.0224 45.4688 77.5724 44.8267 78.7152 43.6839C79.858 42.5411 80.5 40.9912 80.5 39.375V23.125C80.5 21.5088 79.858 19.9589 78.7152 18.8161C77.5724 17.6733 76.0224 17.0312 74.4062 17.0312ZM35.8125 73.9062H21.5938C21.055 73.9062 20.5384 73.6922 20.1574 73.3113C19.7765 72.9304 19.5625 72.4137 19.5625 71.875V55.625C19.5625 55.0863 19.7765 54.5696 20.1574 54.1887C20.5384 53.8078 21.055 53.5938 21.5938 53.5938H35.8125V73.9062ZM64.25 65.7812C64.25 66.32 64.036 66.8366 63.6551 67.2176C63.2741 67.5985 62.7575 67.8125 62.2188 67.8125H60.1875V59.6875H62.2188C62.7575 59.6875 63.2741 59.9015 63.6551 60.2824C64.036 60.6634 64.25 61.18 64.25 61.7188V65.7812ZM76.4375 39.375C76.4375 39.9137 76.2235 40.4304 75.8426 40.8113C75.4616 41.1922 74.945 41.4062 74.4062 41.4062H58.1562C57.6175 41.4062 57.1009 41.1922 56.7199 40.8113C56.339 40.4304 56.125 39.9137 56.125 39.375V23.125C56.125 22.5863 56.339 22.0696 56.7199 21.6887C57.1009 21.3078 57.6175 21.0938 58.1562 21.0938H74.4062C74.945 21.0938 75.4616 21.3078 75.8426 21.6887C76.2235 22.0696 76.4375 22.5863 76.4375 23.125V39.375Z" fill="#DA0D14"/>
<path d="M27.6875 67.8125C28.2262 67.8125 28.7429 67.5985 29.1238 67.2176C29.5047 66.8366 29.7188 66.32 29.7188 65.7812V61.7188C29.7188 61.18 29.5047 60.6634 29.1238 60.2824C28.7429 59.9015 28.2262 59.6875 27.6875 59.6875C27.1488 59.6875 26.6321 59.9015 26.2512 60.2824C25.8703 60.6634 25.6562 61.18 25.6562 61.7188V65.7812C25.6562 66.32 25.8703 66.8366 26.2512 67.2176C26.6321 67.5985 27.1488 67.8125 27.6875 67.8125Z" fill="#DA0D14"/>
<path d="M50.0312 65.7812V61.7188C50.0312 61.18 49.8172 60.6634 49.4363 60.2824C49.0554 59.9015 48.5387 59.6875 48 59.6875C47.4613 59.6875 46.9446 59.9015 46.5637 60.2824C46.1828 60.6634 45.9688 61.18 45.9688 61.7188V65.7812C45.9688 66.32 46.1828 66.8366 46.5637 67.2176C46.9446 67.5985 47.4613 67.8125 48 67.8125C48.5387 67.8125 49.0554 67.5985 49.4363 67.2176C49.8172 66.8366 50.0312 66.32 50.0312 65.7812Z" fill="#DA0D14"/>
</g>
<defs>
<clipPath id="clip0_112_1969">
<rect width="65" height="65" fill="white" transform="translate(15.5 15)"/>
</clipPath>
</defs>
</svg>
