<svg width="1440" height="1187" viewBox="0 0 1440 1187" fill="none" xmlns="http://www.w3.org/2000/svg">
<rect x="-4" y="13" width="1444" height="474" fill="#1D1D1D"/>
<path d="M2633.5 51L-1648.84 1011.09M2308.21 46.456L-1346.35 865.797M2059.71 32.7172L-1127.6 747.303M1867.62 22.09L-958.424 655.681M1714.6 13.5695L-823.687 582.647M1589.94 6.6338L-713.821 523.13M1486.25 0.907104L-622.594 473.704M1329 13L-545.545 431.966M1239.5 13C1204 27 -479.735 396.306 -479.735 396.306M1164 13L-422.754 365.422M1125.5 10.8027L-372.89 338.483M1040 13L-329.025 314.67M999 13L-290.14 293.625M-181.759 258.27L-1769 1186M-108.153 241.768L-1481.72 1121.59M-34.5474 225.266L-1194.44 1057.19M39.0579 208.764L-907.256 992.799M112.663 192.262L-619.976 928.392M186.173 175.781L-332.696 863.985M259.778 159.279L-45.512 799.599M333.384 142.777L241.768 735.192M406.989 126.275L529.048 670.784M480.594 109.773L732.5 484.5M554.104 93.2919L1034.5 484.5M627.709 76.7899L1390.79 477.584M701.315 60.2878L1677.98 413.198M774.92 43.7858L1965.26 348.791M848.526 27.2835L2252.54 284.383M922.036 10.8027L2539.72 219.997M1202.82 15.5L2827 155.59" stroke="url(#paint0_linear_179_1124)" stroke-width="0.342483" stroke-miterlimit="10"/>
<defs>
<linearGradient id="paint0_linear_179_1124" x1="460.802" y1="83.1402" x2="587.158" y2="690.374" gradientUnits="userSpaceOnUse">
<stop stop-color="#FF9696" stop-opacity="0.1"/>
<stop offset="0.457495" stop-color="#DC2626"/>
<stop offset="1" stop-color="#FF9696" stop-opacity="0.5"/>
</linearGradient>
</defs>
</svg>
